<?xml version="1.0" encoding="UTF-8" standalone="no"?>
<!-- Created with Inkscape (http://www.inkscape.org/) -->

<svg
   width="50.006001"
   height="50.006001"
   viewBox="0 0 13.230754 13.230754"
   version="1.1"
   id="svg5"
   xml:space="preserve"
   inkscape:version="1.4.2 (ebf0e940d0, 2025-05-08)"
   sodipodi:docname="alure-post.svg"
   xmlns:inkscape="http://www.inkscape.org/namespaces/inkscape"
   xmlns:sodipodi="http://sodipodi.sourceforge.net/DTD/sodipodi-0.dtd"
   xmlns:xlink="http://www.w3.org/1999/xlink"
   xmlns="http://www.w3.org/2000/svg"
   xmlns:svg="http://www.w3.org/2000/svg"><sodipodi:namedview
     id="namedview7"
     pagecolor="#ffffff"
     bordercolor="#666666"
     borderopacity="1.0"
     inkscape:showpageshadow="2"
     inkscape:pageopacity="0.0"
     inkscape:pagecheckerboard="0"
     inkscape:deskcolor="#d1d1d1"
     inkscape:document-units="mm"
     showgrid="false"
     inkscape:zoom="5.4306397"
     inkscape:cx="52.387935"
     inkscape:cy="61.502883"
     inkscape:window-width="1920"
     inkscape:window-height="1043"
     inkscape:window-x="0"
     inkscape:window-y="0"
     inkscape:window-maximized="1"
     inkscape:current-layer="layer1" /><defs
     id="defs2"><linearGradient
       inkscape:collect="always"
       id="linearGradient1827"><stop
         style="stop-color:#004d77;stop-opacity:1;"
         offset="0"
         id="stop1823" /><stop
         style="stop-color:#005c80;stop-opacity:1;"
         offset="1"
         id="stop1825" /></linearGradient><linearGradient
       inkscape:collect="always"
       xlink:href="#linearGradient1827"
       id="linearGradient1829"
       x1="36.028454"
       y1="43.225571"
       x2="63.695782"
       y2="68.180161"
       gradientUnits="userSpaceOnUse"
       gradientTransform="translate(-18.505406,-37.818124)" /><filter
       inkscape:collect="always"
       style="color-interpolation-filters:sRGB"
       id="filter1924"
       x="-0.07495232"
       y="-0.093690401"
       width="1.1499046"
       height="1.1873808"><feGaussianBlur
         inkscape:collect="always"
         stdDeviation="0.207936"
         id="feGaussianBlur1926" /></filter></defs><g
     inkscape:label="Layer 1"
     inkscape:groupmode="layer"
     id="layer1"><g
       id="g1761"
       transform="matrix(0.50706456,0,0,0.50706456,-7.6351405,-2.4551636)"><path
         style="fill:url(#linearGradient1829);fill-opacity:1;stroke-width:0;stop-color:#000000"
         id="path1201"
         sodipodi:type="arc"
         sodipodi:cx="28.104073"
         sodipodi:cy="17.888456"
         sodipodi:rx="13.046541"
         sodipodi:ry="13.046541"
         sodipodi:start="0"
         sodipodi:end="6.2630301"
         sodipodi:open="true"
         sodipodi:arc-type="arc"
         d="M 41.150614,17.888456 A 13.046541,13.046541 0 0 1 28.169811,30.934832 13.046541,13.046541 0 0 1 15.058194,18.019932 13.046541,13.046541 0 0 1 27.906863,4.8434057 13.046541,13.046541 0 0 1 41.147964,17.625518" /><g
         style="mix-blend-mode:normal;fill:none;stroke:#000000;stroke-width:2;stroke-linecap:round;stroke-linejoin:round;stroke-opacity:1;filter:url(#filter1924)"
         id="g1922"
         transform="matrix(0.73041374,0,0,0.73041374,19.339107,9.1234916)"><path
           d="m 4,4 h 16 c 1.1,0 2,0.9 2,2 v 12 c 0,1.1 -0.9,2 -2,2 H 4 C 2.9,20 2,19.1 2,18 V 6 C 2,4.9 2.9,4 4,4 Z"
           id="path1918"
           style="fill:none;stroke:#000000;stroke-opacity:1" /><polyline
           points="22,6 12,13 2,6"
           id="polyline1920"
           style="fill:none;stroke:#000000;stroke-opacity:1" /></g><g
         style="fill:none;stroke:#ffffff;stroke-width:2;stroke-linecap:round;stroke-linejoin:round;stroke-opacity:1"
         id="g1095"
         transform="matrix(0.73041374,0,0,0.73041374,19.339107,9.1234916)"><path
           d="m 4,4 h 16 c 1.1,0 2,0.9 2,2 v 12 c 0,1.1 -0.9,2 -2,2 H 4 C 2.9,20 2,19.1 2,18 V 6 C 2,4.9 2.9,4 4,4 Z"
           id="path1083"
           style="fill:none;stroke:#ffffff;stroke-opacity:1" /><polyline
           points="22,6 12,13 2,6"
           id="polyline1085"
           style="fill:none;stroke:#ffffff;stroke-opacity:1" /></g></g></g></svg>
